<?xml version="1.0" encoding="utf-8"?>
<!-- Generator: Adobe Illustrator 24.0.0, SVG Export Plug-In . SVG Version: 6.00 Build 0)  -->
<svg version="1.1" id="Layer_1" xmlns="http://www.w3.org/2000/svg" xmlns:xlink="http://www.w3.org/1999/xlink" x="0px" y="0px"
	 viewBox="0 0 100 125" style="enable-background:new 0 0 100 125;" xml:space="preserve">
<g>
	<path d="M50,5C35.9,5,24.5,16.4,24.5,30.5c0,0.7,0,1.4,0.1,2.1c0,0.3,0.1,0.5,0.1,0.8c0,0.4,0.1,0.9,0.2,1.3c0.1,0.3,0.1,0.7,0.2,1
		c0,0.2,0.1,0.5,0.2,0.7c2.3,10.1,10.2,18.2,16.2,32c1.8,4.1,3.4,8.6,4.7,12.6L50,95l3.9-14.1c1.3-4.1,2.9-8.5,4.7-12.6
		c6-13.8,13.9-21.9,16.2-32c0.1-0.2,0.1-0.5,0.2-0.7c0.1-0.3,0.1-0.7,0.2-1c0.1-0.4,0.1-0.8,0.2-1.3c0-0.2,0.1-0.5,0.1-0.8
		c0.1-0.7,0.1-1.4,0.1-2.1C75.5,16.4,64.1,5,50,5z M50,42c-6.3,0-11.5-5.2-11.5-11.5S43.6,19,50,19c6.4,0,11.5,5.1,11.5,11.5
		S56.4,42,50,42z"/>
</g>
</svg>
